<?xml version="1.0" encoding="UTF-8"?>
<svg id="Layer_2" data-name="Layer 2" xmlns="http://www.w3.org/2000/svg" viewBox="0 0 1193.1 1193.1">
  <g id="Layer_1-2" data-name="Layer 1">
    <path d="M0,0V1193.1H1193.1V0H0ZM273.43,187.99c63.86,0,110.82,38.22,113.86,92.77,0,56.64-47.9,96.93-113.86,96.93s-113.86-41.27-113.86-95.82,47.9-93.89,113.86-93.89Zm114.04,798.12c0,10.45-8.55,19.01-19.01,19.01H178.39c-10.45,0-19.01-8.55-19.01-19.01V434.9c0-10.45,8.55-19.01,19.01-19.01h190.07c10.45,0,19.01,8.55,19.01,19.01V986.11Zm646.25,0c0,10.45-8.55,19.01-19.01,19.01h-171.07c-10.49,0-19.01-8.52-19.01-19.01v-294.61c0-45.05-34.61-81.74-78.7-85.16-2.28-.38-4.55-.37-6.83-.37s-4.55,0-6.83,.37c-44.1,3.42-78.7,40.11-78.7,85.16v294.61c0,10.49-8.52,19.01-19.01,19.01h-171.07c-10.45,0-19.01-8.55-19.01-19.01V434.9c0-10.45,8.55-19.01,19.01-19.01h190.07c10.45,0,19.01,8.55,19.01,19.01v28.33c30.6-21.48,81.14-47.33,148.05-47.33,147.12,0,213.09,124.12,213.09,247.09v323.12Z"/>
  </g>
</svg>