<?xml version="1.0" encoding="UTF-8"?>
<svg id="Layer_2" data-name="Layer 2" xmlns="http://www.w3.org/2000/svg" viewBox="0 0 1193.1 1193.1">
  <g id="Layer_1-2" data-name="Layer 1">
    <g>
      <polygon points="511.55 727.4 739.89 596.45 511.55 465.49 511.55 727.4"/>
      <path d="M0,0V1193.1H1193.1V0H0ZM1014.88,806.31c-10.07,37.66-39.57,67.05-77.23,77.23-106.33,26.3-582.59,23.06-682.76,0-37.66-10.07-67.05-39.57-77.23-77.23-25.13-102.41-23.39-319-.56-419.17,10.07-37.66,39.57-67.05,77.23-77.23,142.15-29.66,632.17-20.09,682.76-.56,37.66,10.07,67.05,39.57,77.23,77.23,26.64,107.45,24.9,310.6,.56,419.73Z"/>
    </g>
  </g>
</svg>