<svg xmlns="http://www.w3.org/2000/svg" viewBox="0 0 474.65 68.83"><defs><style>.cls-1{fill:#fff;}</style></defs><g id="Layer_2" data-name="Layer 2"><g id="Layer_1-2" data-name="Layer 1"><rect class="cls-1" x="27.48" y="8.5" width="30.05" height="30.05" transform="translate(-4.18 36.94) rotate(-45)"/><rect class="cls-1" x="6.22" y="29.75" width="30.05" height="30.05" transform="translate(-25.44 28.14) rotate(-45)"/><rect class="cls-1" x="48.73" y="29.75" width="30.05" height="30.05" transform="translate(-12.99 58.19) rotate(-45)"/><path class="cls-1" d="M127.92,16a15.05,15.05,0,0,0-7.53-1.83,13.93,13.93,0,0,0-7.1,1.76,9.66,9.66,0,0,0-3.65,3.77V15h-8.79V53.22h9.28V30.79a9.17,9.17,0,0,1,1-4.32,6.87,6.87,0,0,1,2.75-2.85,8.25,8.25,0,0,1,4.07-1,8,8,0,0,1,4,1,7,7,0,0,1,2.7,2.81,9.06,9.06,0,0,1,1,4.36V53.22h9.28V28.54A14.75,14.75,0,0,0,133,21,13.44,13.44,0,0,0,127.92,16Z"/><rect class="cls-1" x="142.54" y="14.97" width="9.28" height="38.25"/><rect class="cls-1" x="142.54" y="0.84" width="9.28" height="9.84"/><path class="cls-1" d="M172.44,24.11a9.68,9.68,0,0,1,5.24-1.47A9.81,9.81,0,0,1,187,29l8.08-3.52a16.05,16.05,0,0,0-3.72-5.94,17.63,17.63,0,0,0-6-4,20.39,20.39,0,0,0-7.66-1.41,20,20,0,0,0-10.2,2.6,19.35,19.35,0,0,0-7.13,7.1A19.78,19.78,0,0,0,157.71,34a20,20,0,0,0,2.64,10.23,19.54,19.54,0,0,0,7.13,7.17,21.08,21.08,0,0,0,17.93,1.16,18.8,18.8,0,0,0,6.05-4,15.21,15.21,0,0,0,3.65-5.76L187,39.23a9.67,9.67,0,0,1-9.35,6.4,9.6,9.6,0,0,1-5.24-1.48,10.45,10.45,0,0,1-3.73-4.08,12.64,12.64,0,0,1-1.37-6,12.56,12.56,0,0,1,1.37-5.91A10.59,10.59,0,0,1,172.44,24.11Z"/><path class="cls-1" d="M232.25,19.69a16.28,16.28,0,0,0-5.8-4.08,19.9,19.9,0,0,0-7.94-1.48A18.6,18.6,0,0,0,202,23.76,20.65,20.65,0,0,0,199.45,34a21,21,0,0,0,2.46,10.12,18.62,18.62,0,0,0,6.9,7.24,19.6,19.6,0,0,0,10.33,2.67,21.07,21.07,0,0,0,7.24-1.19,17.68,17.68,0,0,0,5.73-3.34,12.48,12.48,0,0,0,3.48-4.82l-7.45-3.65A9.76,9.76,0,0,1,219.28,46a10.33,10.33,0,0,1-5.59-1.51A9.44,9.44,0,0,1,210,40.28a10.93,10.93,0,0,1-.91-3.51h27.52a15.77,15.77,0,0,0,.35-1.83,16.49,16.49,0,0,0,.14-2.11,20,20,0,0,0-1.27-7.2A18.42,18.42,0,0,0,232.25,19.69Zm-18.88,3.55a9.14,9.14,0,0,1,5.14-1.45,9,9,0,0,1,5.13,1.48,8.2,8.2,0,0,1,3.13,4,8.4,8.4,0,0,1,.5,2.43H209.38a11.11,11.11,0,0,1,.66-2.25A9.06,9.06,0,0,1,213.37,23.24Z"/><rect class="cls-1" x="243.03" width="9.28" height="53.22"/><path class="cls-1" d="M277.06,41.41,267.21,15H257.3l15.13,38.24-.86,2a11.81,11.81,0,0,1-2.53,4,6.43,6.43,0,0,1-4.64,1.44,15,15,0,0,1-2.46-.21c-.84-.14-1.57-.28-2.18-.42v7.66a10.7,10.7,0,0,0,2.71.92,16.11,16.11,0,0,0,3,.28,14,14,0,0,0,6.4-1.41,14.51,14.51,0,0,0,4.89-4,24.78,24.78,0,0,0,3.55-6.33L297,15H287Z"/><path class="cls-1" d="M331.16,20.48a14.57,14.57,0,0,0-4.82-4A17.65,17.65,0,0,0,318,14.55a18.31,18.31,0,0,0-9.66,2.57,18.08,18.08,0,0,0-6.68,7,20.77,20.77,0,0,0-2.43,10.09A20.7,20.7,0,0,0,301.7,44.4a18.62,18.62,0,0,0,6.75,7.06,18.15,18.15,0,0,0,9.63,2.6,17.6,17.6,0,0,0,8.37-2,13.32,13.32,0,0,0,4.85-4.29v5.45h6.4V0h-6.54Zm-1.69,20.68A12.23,12.23,0,0,1,325,46a12.05,12.05,0,0,1-6.4,1.76A11.65,11.65,0,0,1,312.21,46a12.48,12.48,0,0,1-4.39-4.82,14.54,14.54,0,0,1-1.62-6.92,14.67,14.67,0,0,1,1.58-6.89,11.83,11.83,0,0,1,10.72-6.47,12.22,12.22,0,0,1,11,6.54,14.2,14.2,0,0,1,1.62,6.82A14.54,14.54,0,0,1,329.47,41.16Z"/><path class="cls-1" d="M373.7,17.08a20.61,20.61,0,0,0-19.86,0,18.86,18.86,0,0,0-7,7,19.87,19.87,0,0,0-2.57,10.13,19.85,19.85,0,0,0,2.6,10.16,19.38,19.38,0,0,0,7,7.06,20,20,0,0,0,19.65,0,19.81,19.81,0,0,0,7.06-7,19.56,19.56,0,0,0,2.67-10.23,19.75,19.75,0,0,0-2.6-10.16A18.93,18.93,0,0,0,373.7,17.08Zm.95,24.05A13,13,0,0,1,370.18,46a11.65,11.65,0,0,1-6.36,1.76A12,12,0,0,1,357.39,46a12.46,12.46,0,0,1-4.5-4.85,14.3,14.3,0,0,1-1.66-6.89,13.88,13.88,0,0,1,1.66-6.82,12.88,12.88,0,0,1,4.5-4.82,12.41,12.41,0,0,1,12.79,0,12.55,12.55,0,0,1,4.5,4.78,14,14,0,0,1,1.65,6.82A14.33,14.33,0,0,1,374.65,41.13Z"/><path class="cls-1" d="M414.3,16.38A14.52,14.52,0,0,0,407,14.55a13.58,13.58,0,0,0-7.31,2,10.7,10.7,0,0,0-3.44,3.42V15.4h-6.4V53.22h6.54V30.79a11.3,11.3,0,0,1,1.16-5.3A8.37,8.37,0,0,1,400.77,22a9.3,9.3,0,0,1,4.78-1.23A8.94,8.94,0,0,1,410.26,22a8.69,8.69,0,0,1,3.2,3.41,11.27,11.27,0,0,1,1.16,5.34V53.22h6.61V28.68a14.2,14.2,0,0,0-1.87-7.27A13.57,13.57,0,0,0,414.3,16.38Z"/><path class="cls-1" d="M463,25.91a17.68,17.68,0,0,0-3.52-5.84,16.55,16.55,0,0,0-5.58-4,19,19,0,0,0-16.84,1,18.29,18.29,0,0,0-6.58,7A20.84,20.84,0,0,0,428,34.17a20.9,20.9,0,0,0,2.46,10.19,18.44,18.44,0,0,0,6.78,7.1,18.64,18.64,0,0,0,9.81,2.6,19.17,19.17,0,0,0,7.07-1.26,17.91,17.91,0,0,0,5.55-3.41,13.83,13.83,0,0,0,3.48-4.75L457.7,41.9a14.17,14.17,0,0,1-4.22,4.43,11.2,11.2,0,0,1-6.4,1.76,12.35,12.35,0,0,1-6.4-1.72,11.89,11.89,0,0,1-4.5-4.86,12.25,12.25,0,0,1-1.31-5.23h29a9.68,9.68,0,0,0,.25-1.87c0-.63,0-1.2,0-1.72A19.53,19.53,0,0,0,463,25.91ZM440.4,22a11.12,11.12,0,0,1,6.05-1.72,10.56,10.56,0,0,1,9.84,6.29,10,10,0,0,1,.9,4H435a12.66,12.66,0,0,1,1.11-3.79A11.48,11.48,0,0,1,440.4,22Z"/><path class="cls-1" d="M469.76,47.47v.68h-1.34v3.72h-.72V48.15h-1.34v-.68Z"/><path class="cls-1" d="M473.81,47.47h.84v4.4h-.71V48.43l-1.36,2h-.07l-1.36-2v3.44h-.71v-4.4h.84l1.27,1.9Z"/></g></g></svg>