<?xml version="1.0" encoding="UTF-8"?>
<svg id="Layer_2" data-name="Layer 2" xmlns="http://www.w3.org/2000/svg" viewBox="0 0 464.13 68.91">
  <defs>
    <style>
      .cls-1 {
        fill: #fff;
      }
    </style>
  </defs>
  <g id="Layer_1-2" data-name="Layer 1">
    <rect class="cls-1" x="27.49" y="8.49" width="30.05" height="30.05" transform="translate(-4.18 36.95) rotate(-45)"/>
    <rect class="cls-1" x="6.22" y="29.75" width="30.05" height="30.05" transform="translate(-25.44 28.14) rotate(-45)"/>
    <rect class="cls-1" x="48.73" y="29.74" width="30.05" height="30.05" transform="translate(-12.98 58.2) rotate(-45)"/>
    <path class="cls-1" d="M127.93,16c-2.31-1.26-4.9-1.89-7.53-1.83-2.48-.06-4.93,.55-7.1,1.76-1.54,.9-2.8,2.2-3.65,3.77v-4.7h-8.79V53.22h9.28V30.79c-.03-1.5,.32-2.98,1-4.32,.62-1.2,1.57-2.19,2.75-2.85,1.25-.68,2.65-1.02,4.07-1,1.4-.02,2.78,.32,4,1,1.15,.66,2.08,1.64,2.7,2.81,.69,1.35,1.04,2.85,1,4.36v22.43h9.28V28.54c.04-2.64-.62-5.24-1.93-7.54-1.21-2.09-2.97-3.82-5.08-5Z"/>
    <rect class="cls-1" x="142.55" y="14.97" width="9.28" height="38.25"/>
    <rect class="cls-1" x="142.55" y=".84" width="9.28" height="9.84"/>
    <path class="cls-1" d="M172.45,24.11c1.57-.98,3.39-1.49,5.24-1.47,4.14-.06,7.87,2.49,9.32,6.36l8.08-3.52c-.79-2.23-2.06-4.26-3.72-5.94-1.7-1.73-3.75-3.09-6-4-2.44-.96-5.04-1.44-7.66-1.41-3.57-.06-7.09,.84-10.2,2.6-2.96,1.7-5.42,4.15-7.13,7.1-1.79,3.09-2.71,6.6-2.66,10.17-.05,3.58,.86,7.12,2.64,10.23,1.71,2.97,4.17,5.45,7.13,7.17,5.5,3.04,12.08,3.47,17.93,1.16,2.26-.93,4.31-2.29,6.05-4,1.64-1.62,2.88-3.59,3.65-5.76l-8.11-3.57c-1.41,3.93-5.18,6.51-9.35,6.4-1.85,.02-3.67-.49-5.24-1.48-1.59-1-2.88-2.41-3.73-4.08-.94-1.86-1.41-3.92-1.37-6-.03-2.05,.44-4.08,1.37-5.91,.87-1.66,2.17-3.06,3.76-4.05Z"/>
    <path class="cls-1" d="M232.26,19.69c-1.61-1.77-3.59-3.16-5.8-4.08-2.52-1.03-5.22-1.53-7.94-1.48-6.86-.08-13.2,3.62-16.51,9.63-1.72,3.13-2.6,6.66-2.55,10.24-.04,3.53,.8,7.01,2.46,10.12,1.6,3,3.98,5.5,6.9,7.24,3.13,1.83,6.71,2.75,10.33,2.67,2.46,.03,4.91-.37,7.24-1.19,2.1-.74,4.05-1.88,5.73-3.34,1.53-1.3,2.73-2.96,3.48-4.82l-7.45-3.65c-1.79,3.18-5.21,5.1-8.86,4.97-1.97,.04-3.91-.48-5.59-1.51-1.63-1-2.91-2.47-3.69-4.21-.5-1.11-.8-2.3-.91-3.51h27.52c.15-.6,.27-1.21,.35-1.83,.09-.7,.14-1.4,.14-2.11,.02-2.46-.41-4.9-1.27-7.2-.81-2.19-2.02-4.2-3.58-5.94Zm-18.88,3.55c1.53-.98,3.32-1.49,5.14-1.45,1.82-.04,3.61,.48,5.13,1.48,1.44,.97,2.54,2.37,3.13,4,.29,.78,.45,1.6,.5,2.43h-17.89c.14-.77,.36-1.53,.66-2.25,.66-1.71,1.82-3.18,3.33-4.21Z"/>
    <rect class="cls-1" x="243.04" width="9.28" height="53.22"/>
    <path class="cls-1" d="M277.07,41.41l-9.85-26.41h-9.91l15.13,38.24-.86,2c-.56,1.49-1.43,2.85-2.53,4-1.3,1.07-2.96,1.59-4.64,1.44-.82,0-1.65-.07-2.46-.21-.84-.14-1.57-.28-2.18-.42v7.66c.86,.43,1.77,.74,2.71,.92,.99,.19,1.99,.28,3,.28,2.21,.04,4.41-.44,6.4-1.41,1.9-.96,3.57-2.32,4.89-4,1.49-1.92,2.68-4.06,3.55-6.33l16.69-42.17h-10l-9.94,26.41Z"/>
    <path class="cls-1" d="M331.17,20.48c-1.3-1.67-2.94-3.03-4.82-4-2.58-1.32-5.44-1.98-8.34-1.93-3.4-.06-6.74,.83-9.66,2.57-2.82,1.68-5.13,4.1-6.68,7-1.65,3.1-2.49,6.58-2.43,10.09-.06,3.55,.79,7.06,2.47,10.19,1.58,2.91,3.91,5.35,6.75,7.06,2.9,1.75,6.24,2.65,9.63,2.6,2.91,.04,5.79-.65,8.37-2,1.94-1.01,3.61-2.48,4.85-4.29v5.45h6.4V0h-6.54V20.48Zm-1.69,20.68c-1.02,1.99-2.57,3.67-4.47,4.84-1.93,1.17-4.14,1.78-6.4,1.76-2.26,.04-4.48-.57-6.39-1.76-1.86-1.19-3.38-2.85-4.39-4.82-1.1-2.14-1.66-4.51-1.62-6.92-.04-2.39,.5-4.76,1.58-6.89,2.05-4.03,6.2-6.54,10.72-6.47,4.61-.07,8.86,2.46,11,6.54,1.1,2.1,1.66,4.45,1.62,6.82,.03,2.4-.54,4.77-1.65,6.9Z"/>
    <path class="cls-1" d="M373.71,17.08c-6.18-3.4-13.68-3.4-19.86,0-2.92,1.67-5.33,4.08-7,7-1.75,3.09-2.63,6.58-2.57,10.13-.06,3.56,.84,7.07,2.6,10.16,1.68,2.92,4.09,5.36,7,7.06,6.1,3.44,13.55,3.44,19.65,0,2.91-1.7,5.34-4.1,7.06-7,1.81-3.1,2.74-6.64,2.67-10.23,.06-3.56-.83-7.07-2.6-10.16-1.66-2.89-4.06-5.29-6.95-6.96Zm.95,24.05c-1.05,1.98-2.59,3.66-4.47,4.87-1.91,1.19-4.11,1.8-6.36,1.76-2.27,.03-4.5-.58-6.43-1.76-1.91-1.18-3.46-2.86-4.5-4.85-1.12-2.12-1.69-4.49-1.66-6.89-.04-2.38,.53-4.73,1.66-6.82,1.06-1.97,2.61-3.63,4.5-4.82,3.94-2.37,8.85-2.37,12.79,0,1.9,1.17,3.45,2.82,4.5,4.78,1.12,2.1,1.69,4.44,1.65,6.82,.03,2.41-.55,4.78-1.68,6.91h0Z"/>
    <path class="cls-1" d="M414.31,16.38c-2.23-1.24-4.75-1.87-7.3-1.83-2.58-.04-5.11,.65-7.31,2-1.39,.86-2.57,2.03-3.44,3.42v-4.57h-6.4V53.22h6.54V30.79c-.05-1.83,.35-3.65,1.16-5.3,.71-1.45,1.83-2.66,3.22-3.49,1.45-.83,3.1-1.26,4.78-1.23,1.65-.03,3.28,.39,4.71,1.23,1.36,.82,2.46,2,3.2,3.41,.82,1.66,1.22,3.49,1.16,5.34v22.47h6.61V28.68c.04-2.55-.61-5.06-1.87-7.27-1.21-2.1-2.95-3.83-5.06-5.03Z"/>
    <path class="cls-1" d="M463.01,25.91c-.78-2.16-1.98-4.14-3.52-5.84-1.56-1.71-3.46-3.07-5.58-4-5.46-2.31-11.69-1.94-16.84,1-2.78,1.71-5.05,4.12-6.58,7-1.67,3.1-2.52,6.58-2.48,10.1-.06,3.55,.79,7.06,2.46,10.19,1.58,2.94,3.92,5.39,6.78,7.1,2.97,1.76,6.36,2.66,9.81,2.6,2.42,.03,4.81-.4,7.07-1.26,2.04-.79,3.92-1.94,5.55-3.41,1.49-1.32,2.67-2.94,3.48-4.75l-5.45-2.74c-1.07,1.77-2.51,3.28-4.22,4.43-1.91,1.22-4.14,1.83-6.4,1.76-2.25,.02-4.46-.57-6.4-1.72-1.93-1.16-3.49-2.85-4.5-4.86-.82-1.62-1.27-3.41-1.31-5.23h29c.14-.61,.23-1.24,.25-1.87v-1.72c.03-2.31-.35-4.6-1.12-6.78Zm-22.6-3.91c1.81-1.14,3.91-1.74,6.05-1.72,4.25-.07,8.12,2.41,9.84,6.29,.57,1.26,.88,2.62,.9,4h-22.19c.17-1.31,.54-2.59,1.11-3.79,.95-1.97,2.43-3.63,4.29-4.78Z"/>
  </g>
</svg>